<svg xmlns="http://www.w3.org/2000/svg" width="24" height="24" viewBox="0 0 24 24" fill="none">
  <mask id="mask0_1_7868" style="mask-type:alpha" maskUnits="userSpaceOnUse" x="0" y="0" width="24" height="24">
    <rect width="24" height="24" fill="#D9D9D9"/>
  </mask>
  <g mask="url(#mask0_1_7868)">
    <path d="M10.95 11.5308L10.052 10.6328C9.90317 10.4942 9.7275 10.425 9.525 10.425C9.3225 10.425 9.14683 10.4993 8.998 10.648C8.84933 10.7968 8.775 10.9725 8.775 11.175C8.775 11.3775 8.84933 11.5532 8.998 11.702L10.2923 13.0115C10.4731 13.1923 10.6882 13.2828 10.9375 13.2828C11.1868 13.2828 11.4019 13.1923 11.5827 13.0115L15.002 9.577C15.1507 9.42817 15.2266 9.25408 15.2298 9.05475C15.2329 8.85542 15.157 8.67817 15.002 8.523C14.8532 8.37433 14.6775 8.3 14.475 8.3C14.2725 8.3 14.0968 8.37433 13.948 8.523L10.95 11.5308ZM12 17.4615L8.03075 19.1652C7.42825 19.4229 6.85583 19.3736 6.3135 19.0173C5.77117 18.6609 5.5 18.1597 5.5 17.5135V5.30775C5.5 4.80258 5.675 4.375 6.025 4.025C6.375 3.675 6.80258 3.5 7.30775 3.5H16.6923C17.1974 3.5 17.625 3.675 17.975 4.025C18.325 4.375 18.5 4.80258 18.5 5.30775V17.5135C18.5 18.1597 18.2288 18.6609 17.6865 19.0173C17.1442 19.3736 16.5718 19.4229 15.9693 19.1652L12 17.4615Z" fill="#039009"/>
  </g>
</svg>